Disc 8 Of 9

34.Queen Of The Wild Frontier            : 720x550 30m 30s
35.Gregory, Diary Of A Nutcase           : 720x552 38m 27s
36.Demonella                             : 720x552 28m 00s                              : 720x554 29m 55s
38.Four Men In A Car                     : 720x436 28m 39s
39.Four Men In A Plane                   : 720x392 33m 00s

Note. Video/Audio Bitrate varies slightly in all 6 clips

Format                                   : MPEG-4
File size                                : 1.40 GiB
Duration                                 : 3h 08mn 36s
Overall bit rate mode                    : Variable
Overall bit rate                         : 1 076 Kbps

Video
Format settings, CABAC                   : Yes
Format settings, ReFrames                : 1 frame
Codec ID                                 : avc1
Duration                                 : 3h 08mn 36s
Bit rate mode                            : Variable
Bit rate                                 : 999 Kbps
Frame rate mode                          : Constant
Frame rate                               : 25.000 fps
Bit depth                                : 8 bits
Scan type                                : Progressive
Bits/(Pixel*Frame)                       : 0.100
Stream size                              : 1.302 GiB (93%)
Writing library                          : x264 core

Audio
Format                                   : AAC
Duration                                 : 3h 08mn 36s
Bit rate mode                            : Variable
Bit rate                                 : 72.4 Kbps
Maximum bit rate                         : 84.6 Kbps
Channel(s)                               : 2 channels
Channel positions                        : Front: L R
Sampling rate                            : 48.0 KHz
Compression mode                         : Lossy
Stream size                              : 98 MiB (7%)
Language                                 : English
Subtitles                                : None

IMDB.  http://www.imdb.com/title/tt0083402/

Screens.  http://bayimg.com/lankLaaed

          http://bayimg.com/LAnkMaaED

          http://bayimg.com/lANkNAaed

          http://bayimg.com/LaNKoaaed

          http://bayimg.com/lanKPAAED

          http://bayimg.com/MankAaAeD    

Enjoy.